<svg xmlns="http://www.w3.org/2000/svg" viewBox="0 0 920 440" role="img" aria-labelledby="title desc"><title id="title">改变摆放，不增加信息</title><desc id="desc">左边三地点各有两个时段，右边变成六条地点与时段组合。六个温度值保持对应。</desc><defs><marker id="arrow" viewBox="0 0 10 10" refX="9" refY="5" markerWidth="7" markerHeight="7" orient="auto-start-reverse"><path d="M0 0L10 5L0 10Z" fill="#256187"/></marker></defs><rect width="920" height="440" rx="18" fill="#fbfdfe"/><g font-family="Noto Sans CJK SC,Microsoft YaHei,PingFang SC,sans-serif"><text x="38" y="50" font-size="27" fill="#173a50" text-anchor="start" font-weight="700">改变摆放，不增加信息</text><text x="38" y="82" font-size="13" fill="#256187" text-anchor="start" font-weight="400">数据调查小镇 / 概念图解</text><rect x="32" y="164" width="98" height="44" rx="9" fill="#c9dfe9" stroke="none"/><text x="81.0" y="193.0" font-size="16" fill="#173a50" text-anchor="middle" font-weight="400">地点</text><rect x="132" y="164" width="106" height="44" rx="9" fill="#c9dfe9" stroke="none"/><text x="185.0" y="193.0" font-size="16" fill="#173a50" text-anchor="middle" font-weight="400">morning</text><rect x="240" y="164" width="108" height="44" rx="9" fill="#c9dfe9" stroke="none"/><text x="294.0" y="193.0" font-size="16" fill="#173a50" text-anchor="middle" font-weight="400">afternoon</text><rect x="32" y="208" width="98" height="42" rx="9" fill="#f2f6f8" stroke="none"/><text x="81.0" y="236.0" font-size="17" fill="#173a50" text-anchor="middle" font-weight="400">P01</text><rect x="132" y="208" width="106" height="42" rx="9" fill="#f2f6f8" stroke="none"/><text x="185.0" y="236.0" font-size="17" fill="#173a50" text-anchor="middle" font-weight="400">27.8</text><rect x="240" y="208" width="108" height="42" rx="9" fill="#f2f6f8" stroke="none"/><text x="294.0" y="236.0" font-size="17" fill="#173a50" text-anchor="middle" font-weight="400">31.1</text><rect x="32" y="252" width="98" height="42" rx="9" fill="#f2f6f8" stroke="none"/><text x="81.0" y="280.0" font-size="17" fill="#173a50" text-anchor="middle" font-weight="400">P02</text><rect x="132" y="252" width="106" height="42" rx="9" fill="#f2f6f8" stroke="none"/><text x="185.0" y="280.0" font-size="17" fill="#173a50" text-anchor="middle" font-weight="400">29.6</text><rect x="240" y="252" width="108" height="42" rx="9" fill="#f2f6f8" stroke="none"/><text x="294.0" y="280.0" font-size="17" fill="#173a50" text-anchor="middle" font-weight="400">33</text><rect x="32" y="296" width="98" height="42" rx="9" fill="#f2f6f8" stroke="none"/><text x="81.0" y="324.0" font-size="17" fill="#173a50" text-anchor="middle" font-weight="400">P03</text><rect x="132" y="296" width="106" height="42" rx="9" fill="#f2f6f8" stroke="none"/><text x="185.0" y="324.0" font-size="17" fill="#173a50" text-anchor="middle" font-weight="400">26.9</text><rect x="240" y="296" width="108" height="42" rx="9" fill="#f2f6f8" stroke="none"/><text x="294.0" y="324.0" font-size="17" fill="#173a50" text-anchor="middle" font-weight="400">29.7</text><path d="M365 236L442 236" fill="none" stroke="#256187" stroke-width="2.5" marker-end="url(#arrow)"/><text x="406" y="210" font-size="17" fill="#173a50" text-anchor="middle" font-weight="400">变长</text><rect x="462" y="113" width="103" height="35" rx="9" fill="#c9dfe9" stroke="none"/><text x="513.5" y="137.5" font-size="16" fill="#173a50" text-anchor="middle" font-weight="400">地点</text><rect x="567" y="113" width="163" height="35" rx="9" fill="#c9dfe9" stroke="none"/><text x="648.5" y="137.5" font-size="16" fill="#173a50" text-anchor="middle" font-weight="400">时段</text><rect x="732" y="113" width="123" height="35" rx="9" fill="#c9dfe9" stroke="none"/><text x="793.5" y="137.5" font-size="16" fill="#173a50" text-anchor="middle" font-weight="400">温度</text><rect x="462" y="148" width="103" height="33" rx="9" fill="#f2f6f8" stroke="none"/><text x="513.5" y="171.5" font-size="17" fill="#173a50" text-anchor="middle" font-weight="400">P01</text><rect x="567" y="148" width="163" height="33" rx="9" fill="#f2f6f8" stroke="none"/><text x="648.5" y="171.5" font-size="17" fill="#173a50" text-anchor="middle" font-weight="400">morning</text><rect x="732" y="148" width="123" height="33" rx="9" fill="#f2f6f8" stroke="none"/><text x="793.5" y="171.5" font-size="17" fill="#173a50" text-anchor="middle" font-weight="400">27.8</text><rect x="462" y="183" width="103" height="33" rx="9" fill="#f2f6f8" stroke="none"/><text x="513.5" y="206.5" font-size="17" fill="#173a50" text-anchor="middle" font-weight="400">P01</text><rect x="567" y="183" width="163" height="33" rx="9" fill="#f2f6f8" stroke="none"/><text x="648.5" y="206.5" font-size="17" fill="#173a50" text-anchor="middle" font-weight="400">afternoon</text><rect x="732" y="183" width="123" height="33" rx="9" fill="#f2f6f8" stroke="none"/><text x="793.5" y="206.5" font-size="17" fill="#173a50" text-anchor="middle" font-weight="400">31.1</text><rect x="462" y="218" width="103" height="33" rx="9" fill="#f2f6f8" stroke="none"/><text x="513.5" y="241.5" font-size="17" fill="#173a50" text-anchor="middle" font-weight="400">P02</text><rect x="567" y="218" width="163" height="33" rx="9" fill="#f2f6f8" stroke="none"/><text x="648.5" y="241.5" font-size="17" fill="#173a50" text-anchor="middle" font-weight="400">morning</text><rect x="732" y="218" width="123" height="33" rx="9" fill="#f2f6f8" stroke="none"/><text x="793.5" y="241.5" font-size="17" fill="#173a50" text-anchor="middle" font-weight="400">29.6</text><rect x="462" y="253" width="103" height="33" rx="9" fill="#f2f6f8" stroke="none"/><text x="513.5" y="276.5" font-size="17" fill="#173a50" text-anchor="middle" font-weight="400">P02</text><rect x="567" y="253" width="163" height="33" rx="9" fill="#f2f6f8" stroke="none"/><text x="648.5" y="276.5" font-size="17" fill="#173a50" text-anchor="middle" font-weight="400">afternoon</text><rect x="732" y="253" width="123" height="33" rx="9" fill="#f2f6f8" stroke="none"/><text x="793.5" y="276.5" font-size="17" fill="#173a50" text-anchor="middle" font-weight="400">33</text><rect x="462" y="288" width="103" height="33" rx="9" fill="#f2f6f8" stroke="none"/><text x="513.5" y="311.5" font-size="17" fill="#173a50" text-anchor="middle" font-weight="400">P03</text><rect x="567" y="288" width="163" height="33" rx="9" fill="#f2f6f8" stroke="none"/><text x="648.5" y="311.5" font-size="17" fill="#173a50" text-anchor="middle" font-weight="400">morning</text><rect x="732" y="288" width="123" height="33" rx="9" fill="#f2f6f8" stroke="none"/><text x="793.5" y="311.5" font-size="17" fill="#173a50" text-anchor="middle" font-weight="400">26.9</text><rect x="462" y="323" width="103" height="33" rx="9" fill="#f2f6f8" stroke="none"/><text x="513.5" y="346.5" font-size="17" fill="#173a50" text-anchor="middle" font-weight="400">P03</text><rect x="567" y="323" width="163" height="33" rx="9" fill="#f2f6f8" stroke="none"/><text x="648.5" y="346.5" font-size="17" fill="#173a50" text-anchor="middle" font-weight="400">afternoon</text><rect x="732" y="323" width="123" height="33" rx="9" fill="#f2f6f8" stroke="none"/><text x="793.5" y="346.5" font-size="17" fill="#173a50" text-anchor="middle" font-weight="400">29.7</text><text x="197" y="386" font-size="17" fill="#173a50" text-anchor="middle" font-weight="400">3 行，6 个温度</text><text x="660" y="386" font-size="17" fill="#173a50" text-anchor="middle" font-weight="400">6 行，仍是这 6 个温度</text></g></svg>