<svg xmlns="http://www.w3.org/2000/svg" viewBox="0 0 920 440" role="img" aria-labelledby="title desc"><title id="title">重新抽样，再算一次</title><desc id="desc">每次拿到新的独立样本，再求一个均值；收集均值才得到抽样分布。这里是流程示意，数值结果见真实 R 图。</desc><defs><marker id="arrow" viewBox="0 0 10 10" refX="9" refY="5" markerWidth="7" markerHeight="7" orient="auto-start-reverse"><path d="M0 0L10 5L0 10Z" fill="#256187"/></marker></defs><rect width="920" height="440" rx="18" fill="#fbfdfe"/><g font-family="Noto Sans CJK SC,Microsoft YaHei,PingFang SC,sans-serif"><text x="38" y="50" font-size="27" fill="#173a50" text-anchor="start" font-weight="700">重新抽样，再算一次</text><text x="38" y="82" font-size="13" fill="#256187" text-anchor="start" font-weight="400">数据调查小镇 / 概念图解</text><rect x="35" y="179" width="155" height="87" rx="9" fill="#dce9f0" stroke="none"/><text x="112.5" y="229.5" font-size="19" fill="#173a50" text-anchor="middle" font-weight="400">模拟总体</text><path d="M198 223L265 142" fill="none" stroke="#256187" stroke-width="2.5" marker-end="url(#arrow)"/><rect x="280" y="112" width="165" height="66" rx="9" fill="#deeee6" stroke="none"/><circle cx="301" cy="124" r="3" fill="#36866f"/><circle cx="330" cy="124" r="3" fill="#36866f"/><circle cx="359" cy="124" r="3" fill="#36866f"/><circle cx="388" cy="124" r="3" fill="#36866f"/><circle cx="417" cy="124" r="3" fill="#36866f"/><circle cx="301" cy="138" r="3" fill="#36866f"/><circle cx="330" cy="138" r="3" fill="#36866f"/><circle cx="359" cy="138" r="3" fill="#36866f"/><circle cx="388" cy="138" r="3" fill="#36866f"/><circle cx="417" cy="138" r="3" fill="#36866f"/><circle cx="301" cy="152" r="3" fill="#36866f"/><circle cx="330" cy="152" r="3" fill="#36866f"/><circle cx="359" cy="152" r="3" fill="#36866f"/><circle cx="388" cy="152" r="3" fill="#36866f"/><circle cx="417" cy="152" r="3" fill="#36866f"/><circle cx="301" cy="166" r="3" fill="#36866f"/><circle cx="330" cy="166" r="3" fill="#36866f"/><circle cx="359" cy="166" r="3" fill="#36866f"/><circle cx="388" cy="166" r="3" fill="#36866f"/><circle cx="417" cy="166" r="3" fill="#36866f"/><path d="M454 145L525 145" fill="none" stroke="#256187" stroke-width="2.5" marker-end="url(#arrow)"/><rect x="540" y="119" width="153" height="51" rx="9" fill="#dce9f0" stroke="none"/><text x="616.5" y="151.5" font-size="19" fill="#173a50" text-anchor="middle" font-weight="400">样本均值 1</text><path d="M198 223L265 232" fill="none" stroke="#256187" stroke-width="2.5" marker-end="url(#arrow)"/><rect x="280" y="202" width="165" height="66" rx="9" fill="#deeee6" stroke="none"/><circle cx="301" cy="214" r="3" fill="#36866f"/><circle cx="330" cy="214" r="3" fill="#36866f"/><circle cx="359" cy="214" r="3" fill="#36866f"/><circle cx="388" cy="214" r="3" fill="#36866f"/><circle cx="417" cy="214" r="3" fill="#36866f"/><circle cx="301" cy="228" r="3" fill="#36866f"/><circle cx="330" cy="228" r="3" fill="#36866f"/><circle cx="359" cy="228" r="3" fill="#36866f"/><circle cx="388" cy="228" r="3" fill="#36866f"/><circle cx="417" cy="228" r="3" fill="#36866f"/><circle cx="301" cy="242" r="3" fill="#36866f"/><circle cx="330" cy="242" r="3" fill="#36866f"/><circle cx="359" cy="242" r="3" fill="#36866f"/><circle cx="388" cy="242" r="3" fill="#36866f"/><circle cx="417" cy="242" r="3" fill="#36866f"/><circle cx="301" cy="256" r="3" fill="#36866f"/><circle cx="330" cy="256" r="3" fill="#36866f"/><circle cx="359" cy="256" r="3" fill="#36866f"/><circle cx="388" cy="256" r="3" fill="#36866f"/><circle cx="417" cy="256" r="3" fill="#36866f"/><path d="M454 235L525 235" fill="none" stroke="#256187" stroke-width="2.5" marker-end="url(#arrow)"/><rect x="540" y="209" width="153" height="51" rx="9" fill="#dce9f0" stroke="none"/><text x="616.5" y="241.5" font-size="19" fill="#173a50" text-anchor="middle" font-weight="400">样本均值 2</text><path d="M198 223L265 322" fill="none" stroke="#256187" stroke-width="2.5" marker-end="url(#arrow)"/><rect x="280" y="292" width="165" height="66" rx="9" fill="#deeee6" stroke="none"/><circle cx="301" cy="304" r="3" fill="#36866f"/><circle cx="330" cy="304" r="3" fill="#36866f"/><circle cx="359" cy="304" r="3" fill="#36866f"/><circle cx="388" cy="304" r="3" fill="#36866f"/><circle cx="417" cy="304" r="3" fill="#36866f"/><circle cx="301" cy="318" r="3" fill="#36866f"/><circle cx="330" cy="318" r="3" fill="#36866f"/><circle cx="359" cy="318" r="3" fill="#36866f"/><circle cx="388" cy="318" r="3" fill="#36866f"/><circle cx="417" cy="318" r="3" fill="#36866f"/><circle cx="301" cy="332" r="3" fill="#36866f"/><circle cx="330" cy="332" r="3" fill="#36866f"/><circle cx="359" cy="332" r="3" fill="#36866f"/><circle cx="388" cy="332" r="3" fill="#36866f"/><circle cx="417" cy="332" r="3" fill="#36866f"/><circle cx="301" cy="346" r="3" fill="#36866f"/><circle cx="330" cy="346" r="3" fill="#36866f"/><circle cx="359" cy="346" r="3" fill="#36866f"/><circle cx="388" cy="346" r="3" fill="#36866f"/><circle cx="417" cy="346" r="3" fill="#36866f"/><path d="M454 325L525 325" fill="none" stroke="#256187" stroke-width="2.5" marker-end="url(#arrow)"/><rect x="540" y="299" width="153" height="51" rx="9" fill="#dce9f0" stroke="none"/><text x="616.5" y="331.5" font-size="19" fill="#173a50" text-anchor="middle" font-weight="400">样本均值 3</text><path d="M705 223L765 223" fill="none" stroke="#256187" stroke-width="2.5" marker-end="url(#arrow)"/><rect x="777" y="150" width="120" height="145" rx="9" fill="#dce9f0" stroke="none"/><text x="837.0" y="229.5" font-size="17" fill="#173a50" text-anchor="middle" font-weight="400">收集均值</text><text x="460" y="393" font-size="18" fill="#173a50" text-anchor="middle" font-weight="400">每份样本 n = 20；重复次数不是单份样本量。</text></g></svg>