<svg xmlns="http://www.w3.org/2000/svg" viewBox="0 0 850 420" role="img" aria-label="封装格式不同，先核对数据身份"><defs><marker id="arrow" markerWidth="7" markerHeight="7" refX="6" refY="3.5" orient="auto"><path d="M0 0 7 3.5 0 7Z" fill="#557e65"/></marker></defs><rect width="850" height="420" rx="18" fill="#f5f8ee"/><g font-family="Noto Sans CJK SC,Microsoft YaHei,sans-serif"><text x="24" y="34" font-size="23" fill="#233f46" text-anchor="start">封装格式不同，先核对数据身份</text><rect x="28" y="80" width="238" height="155" rx="12" fill="#fff7df" stroke="#6b9085"/><text x="46" y="114" font-size="19" fill="#233f46" text-anchor="start">10x H5</text><text x="46" y="145" font-size="15" fill="#233f46" text-anchor="start">一个文件</text><text x="46" y="172" font-size="15" fill="#233f46" text-anchor="start">矩阵 + feature + barcode</text><rect x="306" y="80" width="238" height="155" rx="12" fill="#fff7df" stroke="#6b9085"/><text x="324" y="114" font-size="19" fill="#233f46" text-anchor="start">MTX</text><text x="324" y="145" font-size="15" fill="#233f46" text-anchor="start">matrix / features</text><text x="324" y="172" font-size="15" fill="#233f46" text-anchor="start">barcodes 配套文件</text><rect x="584" y="80" width="238" height="155" rx="12" fill="#fff7df" stroke="#6b9085"/><text x="602" y="114" font-size="19" fill="#233f46" text-anchor="start">H5AD</text><text x="602" y="145" font-size="15" fill="#233f46" text-anchor="start">AnnData 对象</text><text x="602" y="172" font-size="15" fill="#233f46" text-anchor="start">可能已归一化或注释</text><path d="M145 252L390 307" stroke="#557e65" stroke-width="2" fill="none" marker-end="url(#arrow)"/><path d="M425 252L425 307" stroke="#557e65" stroke-width="2" fill="none" marker-end="url(#arrow)"/><path d="M705 252L462 307" stroke="#557e65" stroke-width="2" fill="none" marker-end="url(#arrow)"/><text x="216" y="344" font-size="20" fill="#233f46" text-anchor="start">先检查 counts 来源、细胞/基因身份与维度</text><text x="24" y="404" font-size="13" fill="#547078" text-anchor="start">原理示意 · 数量、距离和颜色不代表本案例实际测量</text></g></svg>