<svg xmlns="http://www.w3.org/2000/svg" viewBox="0 0 850 420" role="img" aria-label="同一输入，三条候选路线"><defs><marker id="arrow" markerWidth="7" markerHeight="7" refX="6" refY="3.5" orient="auto"><path d="M0 0 7 3.5 0 7Z" fill="#557e65"/></marker></defs><rect width="850" height="420" rx="18" fill="#f5f8ee"/><g font-family="Noto Sans CJK SC,Microsoft YaHei,sans-serif"><text x="24" y="34" font-size="23" fill="#233f46" text-anchor="start">同一输入，三条候选路线</text><rect x="24" y="68" width="238" height="155" rx="12" fill="#fff7df" stroke="#6b9085"/><text x="42" y="102" font-size="19" fill="#233f46" text-anchor="start">未整合</text><text x="42" y="133" font-size="15" fill="#233f46" text-anchor="start">保留当前表示</text><text x="42" y="160" font-size="15" fill="#233f46" text-anchor="start">按原图继续</text><rect x="306" y="68" width="238" height="155" rx="12" fill="#fff7df" stroke="#6b9085"/><text x="324" y="102" font-size="19" fill="#233f46" text-anchor="start">Harmony</text><text x="324" y="133" font-size="15" fill="#233f46" text-anchor="start">调整 PCA 表示</text><text x="324" y="160" font-size="15" fill="#233f46" text-anchor="start">随后重建邻居图</text><rect x="588" y="68" width="238" height="155" rx="12" fill="#fff7df" stroke="#6b9085"/><text x="606" y="102" font-size="19" fill="#233f46" text-anchor="start">BBKNN</text><text x="606" y="133" font-size="15" fill="#233f46" text-anchor="start">改变邻居选择</text><text x="606" y="160" font-size="15" fill="#233f46" text-anchor="start">按批次平衡来源</text><path d="M140 235L375 304" stroke="#557e65" stroke-width="2" fill="none" marker-end="url(#arrow)"/><path d="M426 235L426 304" stroke="#557e65" stroke-width="2" fill="none" marker-end="url(#arrow)"/><path d="M704 235L478 304" stroke="#557e65" stroke-width="2" fill="none" marker-end="url(#arrow)"/><text x="310" y="343" font-size="19" fill="#233f46" text-anchor="start">看证据 → 用户确认一条主路线</text><text x="24" y="404" font-size="13" fill="#547078" text-anchor="start">原理示意 · 数量、距离和颜色不代表本案例实际测量</text></g></svg>