<svg xmlns="http://www.w3.org/2000/svg" viewBox="0 0 850 420" role="img" aria-label="放大一个群，有两种路线"><defs><marker id="arrow" markerWidth="7" markerHeight="7" refX="6" refY="3.5" orient="auto"><path d="M0 0 7 3.5 0 7Z" fill="#557e65"/></marker></defs><rect width="850" height="420" rx="18" fill="#f5f8ee"/><g font-family="Noto Sans CJK SC,Microsoft YaHei,sans-serif"><text x="24" y="34" font-size="23" fill="#233f46" text-anchor="start">放大一个群，有两种路线</text><circle cx="62" cy="146" r="3" fill="#557e65" stroke="#547b70"/><circle cx="76" cy="149" r="3" fill="#557e65" stroke="#547b70"/><circle cx="90" cy="152" r="3" fill="#557e65" stroke="#547b70"/><circle cx="104" cy="146" r="3" fill="#557e65" stroke="#547b70"/><circle cx="118" cy="149" r="3" fill="#557e65" stroke="#547b70"/><circle cx="127" cy="152" r="3" fill="#557e65" stroke="#547b70"/><circle cx="141" cy="146" r="3" fill="#557e65" stroke="#547b70"/><circle cx="64" cy="162" r="3" fill="#557e65" stroke="#547b70"/><circle cx="78" cy="165" r="3" fill="#557e65" stroke="#547b70"/><circle cx="92" cy="159" r="3" fill="#557e65" stroke="#547b70"/><circle cx="101" cy="162" r="3" fill="#557e65" stroke="#547b70"/><circle cx="115" cy="165" r="3" fill="#557e65" stroke="#547b70"/><circle cx="129" cy="159" r="3" fill="#557e65" stroke="#547b70"/><circle cx="143" cy="162" r="3" fill="#557e65" stroke="#547b70"/><circle cx="66" cy="178" r="3" fill="#557e65" stroke="#547b70"/><circle cx="75" cy="172" r="3" fill="#557e65" stroke="#547b70"/><circle cx="89" cy="175" r="3" fill="#557e65" stroke="#547b70"/><circle cx="103" cy="178" r="3" fill="#557e65" stroke="#547b70"/><circle cx="117" cy="172" r="3" fill="#557e65" stroke="#547b70"/><circle cx="131" cy="175" r="3" fill="#557e65" stroke="#547b70"/><circle cx="140" cy="178" r="3" fill="#557e65" stroke="#547b70"/><circle cx="63" cy="185" r="3" fill="#557e65" stroke="#547b70"/><circle cx="77" cy="188" r="3" fill="#557e65" stroke="#547b70"/><circle cx="91" cy="191" r="3" fill="#557e65" stroke="#547b70"/><circle cx="105" cy="185" r="3" fill="#557e65" stroke="#547b70"/><circle cx="114" cy="188" r="3" fill="#557e65" stroke="#547b70"/><circle cx="128" cy="191" r="3" fill="#557e65" stroke="#547b70"/><circle cx="142" cy="185" r="3" fill="#557e65" stroke="#547b70"/><circle cx="65" cy="201" r="3" fill="#557e65" stroke="#547b70"/><circle cx="79" cy="204" r="3" fill="#557e65" stroke="#547b70"/><circle cx="88" cy="198" r="3" fill="#557e65" stroke="#547b70"/><circle cx="102" cy="201" r="3" fill="#557e65" stroke="#547b70"/><circle cx="116" cy="204" r="3" fill="#557e65" stroke="#547b70"/><circle cx="130" cy="198" r="3" fill="#557e65" stroke="#547b70"/><circle cx="144" cy="201" r="3" fill="#557e65" stroke="#547b70"/><circle cx="103" cy="175" r="72" fill="#dbe9d488" stroke="#547b70"/><path d="M187 183L300 122" stroke="#557e65" stroke-width="2" fill="none" marker-end="url(#arrow)"/><path d="M187 183L300 269" stroke="#557e65" stroke-width="2" fill="none" marker-end="url(#arrow)"/><rect x="321" y="61" width="260" height="155" rx="12" fill="#fff7df" stroke="#6b9085"/><text x="339" y="95" font-size="19" fill="#233f46" text-anchor="start">原图限制</text><text x="339" y="126" font-size="15" fill="#233f46" text-anchor="start">保留全体背景</text><text x="339" y="153" font-size="15" fill="#233f46" text-anchor="start">在目标群内分割</text><rect x="321" y="237" width="260" height="155" rx="12" fill="#fff7df" stroke="#6b9085"/><text x="339" y="271" font-size="19" fill="#233f46" text-anchor="start">提取重建</text><text x="339" y="302" font-size="15" fill="#233f46" text-anchor="start">更新局部表示</text><text x="339" y="329" font-size="15" fill="#233f46" text-anchor="start">重新构建邻居</text><text x="620" y="157" font-size="20" fill="#233f46" text-anchor="start">核对 marker</text><text x="620" y="205" font-size="20" fill="#233f46" text-anchor="start">比较粒度</text><text x="620" y="253" font-size="20" fill="#233f46" text-anchor="start">再选路线</text><text x="24" y="404" font-size="13" fill="#547078" text-anchor="start">原理示意 · 数量、距离和颜色不代表本案例实际测量</text></g></svg>