<svg xmlns="http://www.w3.org/2000/svg" class="symbol-sheet" aria-hidden="true"><defs><symbol id="building-leaf" viewBox="0 0 125 125"><g stroke="#385d60" stroke-width="2.4" stroke-linecap="round" stroke-linejoin="round"><path d="M35 91C14 42 61 14 104 17c2 47-16 79-64 73Z" fill="#89ad72"/><path d="M34 103 87 34M50 83l-6-26m19 10 24-4m-13-9-1-19" fill="none"/><path d="M32 101h52l-9 14H40Z" fill="#d99e67"/></g></symbol><symbol id="building-port" viewBox="0 0 125 125"><g stroke="#385d60" stroke-width="2.4" stroke-linecap="round" stroke-linejoin="round"><path d="M12 83h100l-17 25H35Z" fill="#b98559"/><path d="M62 15v68M66 20l40 51H66Z" fill="#fff9de"/><path d="m56 32-31 37h31Z" fill="#cf8468"/><path d="M14 114q14-10 28 0t28 0t28 0" fill="none" stroke="#59909a"/></g></symbol><symbol id="building-library" viewBox="0 0 125 125"><g stroke="#385d60" stroke-width="2.4" stroke-linecap="round" stroke-linejoin="round"><path d="M23 51h80v59H23Z" fill="#f8e6b5"/><path d="m14 50 50-32 48 32Z" fill="#769d90"/><path d="M31 59v43m19-43v43m21-43v43m21-43v43M17 111h93M21 104h85" fill="none"/><path d="M57 35h15v10H57Z" fill="#fffaf0"/></g></symbol><symbol id="building-lighthouse" viewBox="0 0 125 125"><g stroke="#385d60" stroke-width="2.4" stroke-linecap="round" stroke-linejoin="round"><path d="m39 105 9-66h29l11 66Z" fill="#fffbeb"/><path d="m45 66 36 0 4 19H42Z" fill="#cf8061"/><path d="M41 24h44v17H41Z" fill="#f2cf70"/><path d="m37 24 26-17 27 17ZM34 106h60v8H34Z" fill="#769d90"/><path d="M57 91h13v15H57ZM26 31 9 25m17 15L8 47m93-18 15-5m-15 16 17 7" fill="none"/></g></symbol><symbol id="building-workshop" viewBox="0 0 125 125"><g stroke="#385d60" stroke-width="2.4" stroke-linecap="round" stroke-linejoin="round"><path d="M19 49h87v62H19Z" fill="#f4d8a5"/><path d="m12 49 46-27 56 27Z" fill="#7aa28e"/><path d="M85 36V16h11v26" fill="#ead6af"/><path d="M51 75h29v36H51ZM28 62h14v17H28ZM87 62h12v17H87Z" fill="#c1dce0"/><path d="M29 107h10m56 0h8M56 83h17" fill="none"/></g></symbol><symbol id="building-salmon" viewBox="0 0 125 125"><g stroke="#385d60" stroke-width="2.4" stroke-linecap="round" stroke-linejoin="round"><path d="M15 50h97v52H15Z" fill="#efd8a7"/><path d="M9 49 63 18l55 31Z" fill="#6f9f9a"/><path d="M24 85q29-41 62-6l19-11v25L87 82q-31 31-63 3Z" fill="#d89372"/><circle cx="37" cy="80" r="2" fill="#294e54"/><path d="M16 110h98m-66-8v8m42-8v8" fill="none"/></g></symbol><symbol id="building-matrix" viewBox="0 0 125 125"><g stroke="#385d60" stroke-width="2.4" stroke-linecap="round" stroke-linejoin="round"><path d="M15 42h95v70H15Z" fill="#f5e5bc"/><path d="M9 42 30 22h66l20 20Z" fill="#749ca3"/><path d="M28 55h70v45H28Z" fill="#e8f1e3"/><path d="M28 70h70M28 85h70M45 55v45M63 55v45M81 55v45" fill="none"/><path d="M46 71h16v13H46ZM82 56h15v13H82Z" fill="#d19469"/></g></symbol><symbol id="building-telescope" viewBox="0 0 125 125"><g stroke="#385d60" stroke-width="2.4" stroke-linecap="round" stroke-linejoin="round"><path d="M26 109h67M49 101l12-42 16 42M59 71l-17 24m19-25 22 18" fill="none"/><g transform="rotate(-28 65 44)"><path d="M27 30h69v26H27Z" fill="#dca774"/><path d="M89 26h13v34H89Z" fill="#719da7"/><path d="M14 34h13v18H14Z" fill="#f5e8be"/></g><path d="m22 9 2 6 6 2-6 2-2 6-2-6-6-2 6-2Z" fill="#d3b25d"/></g></symbol><symbol id="building-research" viewBox="0 0 125 125"><g stroke="#385d60" stroke-width="2.4" stroke-linecap="round" stroke-linejoin="round"><path d="M20 47h87v65H20Z" fill="#f0dfb6"/><path d="M14 47h99L67 14Z" fill="#b68570"/><path d="M29 57h18v20H29ZM77 57h19v20H77Z" fill="#b8d6d5"/><path d="M57 63v20l-14 20q18 14 36 0L67 83V63m-15 0h20" fill="#f9f1d8"/><path d="M51 94h22l6 9q-17 12-36 0Z" fill="#82ac9c"/></g></symbol><symbol id="building-bridge" viewBox="0 0 125 125"><g stroke="#385d60" stroke-width="2.4" stroke-linecap="round" stroke-linejoin="round"><path d="M7 91q56-61 112 0v17q-57-44-112 0Z" fill="#dac093"/><path d="M19 80v28m20-41v31m24-38v31m24-24v30m20-17v27M9 86q55-58 108 0" fill="none"/><path d="M18 119q14-9 28 0t28 0t28 0" fill="none" stroke="#619ea6"/><circle cx="40" cy="24" r="17" fill="#b4d4c3"/><circle cx="64" cy="24" r="17" fill="#e8bd87"/><circle cx="87" cy="24" r="17" fill="#99bfca"/></g></symbol><symbol id="building-volcano" viewBox="0 0 125 125"><g stroke="#385d60" stroke-width="2.4" stroke-linecap="round" stroke-linejoin="round"><path d="M8 112 47 43h26l45 69Z" fill="#c19c80"/><path d="m33 68 14-25h26l18 28-20-7-11 12-12-12Z" fill="#f0d5ae"/><path d="m57 54 9 15 8 25" fill="none" stroke="#cc7157" stroke-width="6"/><path d="M56 37q-18-16-2-21 8-14 20-3 20-2 17 13" fill="#f8efd9"/><path d="M18 101h21m49 6h19" fill="none"/></g></symbol><symbol id="building-books" viewBox="0 0 125 125"><g stroke="#385d60" stroke-width="2.4" stroke-linecap="round" stroke-linejoin="round"><path d="M18 47h91v64H18Z" fill="#f3dfb5"/><path d="m10 47 55-29 52 29Z" fill="#83a178"/><path d="M28 59h29v37H28ZM70 59h29v37H70Z" fill="#fff7df"/><path d="M36 61v32m9-32v32m33-32v32m11-32v32" fill="none" stroke="#a97658" stroke-width="6"/><path d="M54 89h18v22H54Z" fill="#648e8b"/><path d="m36 17 27-5 27 5v13l-27-6-27 6Z" fill="#fffae9"/></g></symbol><symbol id="building-rank" viewBox="0 0 125 125"><g stroke="#385d60" stroke-width="2.4" stroke-linecap="round" stroke-linejoin="round"><path d="M17 60h92v51H17Z" fill="#e8dab4"/><path d="M27 39h72v24H27Z" fill="#b8d0b6"/><path d="M39 21h47v19H39Z" fill="#c3d9de"/><path d="M24 75h9v25h-9ZM43 66h9v34h-9ZM62 80h9v20h-9ZM81 88h9v12h-9Z" fill="#cb8f6e"/><path d="m105 38 10 5-10 5M8 112h111" fill="none"/></g></symbol><symbol id="building-waves" viewBox="0 0 125 125"><g stroke="#385d60" stroke-width="2.4" stroke-linecap="round" stroke-linejoin="round"><path d="M16 45h95v65H16Z" fill="#e9dfbd"/><path d="m9 45 54-28 56 28Z" fill="#789c94"/><path d="M28 59h70v40H28Z" fill="#fff8e4"/><path d="M30 88q14-45 28-12t38-4" fill="none" stroke="#c88463"/><path d="M29 70q20 35 39 0t27 13" fill="none" stroke="#6297a0"/><path d="M8 113h110" fill="none"/></g></symbol><symbol id="building-clock" viewBox="0 0 125 125"><g stroke="#385d60" stroke-width="2.4" stroke-linecap="round" stroke-linejoin="round"><path d="M35 111V43h54v68Z" fill="#edd6a6"/><path d="M29 44 61 10l34 34Z" fill="#7a9d9c"/><circle cx="62" cy="59" r="19" fill="#fff9e7"/><path d="M62 45v14l11 8M53 92h18v19H53ZM26 113h72" fill="none"/><circle cx="62" cy="59" r="2" fill="#355d63"/></g></symbol><symbol id="building-explorer" viewBox="0 0 125 125"><g stroke="#385d60" stroke-width="2.4" stroke-linecap="round" stroke-linejoin="round"><path d="M13 68 45 26l32 42v42H13Z" fill="#e8d4a3"/><path d="m45 26 45 9 25 75H77V68Z" fill="#85a490"/><path d="M26 110V72h37v38Z" fill="#476f73"/><path d="M40 72v38M20 59h45" fill="none"/><path d="m76 19 18-7 17 7v24l-17-5-18 5Z" fill="#fff2d6"/><path d="M94 13v25m-11-14 6-3m11 2 5 4" fill="none"/></g></symbol></defs></svg>